<svg  viewBox="0 0 290 51" fill="none" xmlns="http://www.w3.org/2000/svg">
<path fill-rule="evenodd" clip-rule="evenodd" d="M16.7 5.1C31.9 -2.8 49.7 -1.3 56.5 8.6C60.3 14.2 59.9 21.3 55.9 27.8H49.3C62.7 3.8 32 -1.7 15.2 7C14.1 7.6 12.8 8.2 11.7 8.9H10.6C12.4 7.5 14.5 6.2 16.7 5.1ZM76.9 48.8H73.5V42.3H76.9V43.2H74.5V45.1H76.9V46H74.5V47.9H76.9V48.8ZM85.1 48.8L84 46.9L82.8 48.8H81.8L83.5 46.2L82 43.8H83L84 45.5L85 43.8H86L84.4 46.1L86 48.7H85.1V48.8ZM95.6 47.1C95.4 47.7 95.1 48.1 94.7 48.4C94.3 48.7 93.8 48.9 93.2 48.9C92.8 48.9 92.5 48.8 92.2 48.7C91.9 48.6 91.6 48.4 91.4 48.1C91.2 47.9 91 47.6 90.9 47.3C90.8 47 90.7 46.7 90.7 46.3C90.7 46 90.8 45.6 90.9 45.3C91 45 91.2 44.7 91.4 44.5C91.7 44.2 91.9 44 92.3 43.9C92.6 43.8 93 43.7 93.3 43.7C93.9 43.7 94.4 43.9 94.8 44.2C95.2 44.5 95.5 44.9 95.7 45.5H94.7C94.5 45.2 94.3 45 94.1 44.8C93.9 44.7 93.6 44.6 93.2 44.6C92.8 44.6 92.4 44.8 92.1 45.1C91.8 45.4 91.6 45.8 91.6 46.3C91.6 46.8 91.8 47.2 92.1 47.5C92.4 47.8 92.8 48 93.3 48C93.6 48 93.9 47.9 94.1 47.8C94.3 47.6 94.5 47.4 94.7 47.1H95.6V47.1ZM104.7 45.8C104.6 45.4 104.4 45.1 104.1 44.9C103.8 44.7 103.5 44.6 103.1 44.6C102.7 44.6 102.4 44.7 102.1 44.9C101.8 45.1 101.6 45.4 101.5 45.8H104.7ZM101.5 46.6C101.6 47 101.8 47.3 102.1 47.6C102.4 47.9 102.7 48 103.2 48C103.5 48 103.8 47.9 104 47.8C104.2 47.7 104.4 47.5 104.6 47.2H105.6C105.4 47.7 105.1 48.2 104.7 48.5C104.3 48.8 103.8 48.9 103.3 48.9C102.9 48.9 102.6 48.8 102.3 48.7C102 48.6 101.7 48.4 101.5 48.1C101.3 47.9 101.1 47.6 101 47.3C100.9 47 100.8 46.7 100.8 46.3C100.8 46 100.9 45.6 101 45.3C101.1 45 101.3 44.7 101.5 44.5C101.7 44.2 102 44 102.3 43.9C102.6 43.8 102.9 43.7 103.3 43.7C103.7 43.7 104.1 43.8 104.5 44C104.9 44.2 105.2 44.5 105.4 44.8C105.5 45 105.6 45.3 105.7 45.5C105.8 45.8 105.8 46.1 105.8 46.4V46.5H101.5V46.6ZM110.8 48.8V42.3H111.7V48.8H110.8ZM117.1 48.8V42.3H118V48.8H117.1ZM127.2 45.8C127.1 45.4 126.9 45.1 126.6 44.9C126.3 44.7 126 44.6 125.6 44.6C125.2 44.6 124.9 44.7 124.6 44.9C124.3 45.1 124.1 45.4 124 45.8H127.2ZM124 46.6C124.1 47 124.3 47.3 124.6 47.6C124.9 47.9 125.2 48 125.7 48C126 48 126.3 47.9 126.5 47.8C126.7 47.7 126.9 47.5 127.1 47.2H128.1C127.9 47.7 127.6 48.2 127.2 48.5C126.8 48.8 126.3 48.9 125.8 48.9C125.4 48.9 125.1 48.8 124.8 48.7C124.5 48.6 124.2 48.4 124 48.1C123.8 47.9 123.6 47.6 123.5 47.3C123.4 47 123.3 46.7 123.3 46.3C123.3 46 123.4 45.6 123.5 45.3C123.6 45 123.8 44.7 124 44.5C124.2 44.2 124.5 44 124.8 43.9C125.1 43.8 125.4 43.7 125.8 43.7C126.2 43.7 126.6 43.8 127 44C127.4 44.2 127.7 44.5 127.9 44.8C128 45 128.1 45.3 128.2 45.5C128.3 45.8 128.3 46.1 128.3 46.4V46.5H124V46.6ZM134.2 48.8H133.3V43.9H134.2V44.5C134.4 44.3 134.6 44.1 134.8 44C135 43.9 135.3 43.8 135.6 43.8C136.2 43.8 136.7 44 137.1 44.4C137.4 44.8 137.6 45.3 137.6 46V48.8H136.7V46.2C136.7 45.7 136.6 45.3 136.4 45C136.2 44.7 135.9 44.6 135.5 44.6C135.1 44.6 134.7 44.7 134.5 45C134.3 45.3 134.2 45.8 134.2 46.5V48.8V48.8ZM147.6 47.1C147.4 47.7 147.1 48.1 146.7 48.4C146.3 48.7 145.8 48.9 145.2 48.9C144.8 48.9 144.5 48.8 144.2 48.7C143.9 48.6 143.6 48.4 143.4 48.1C143.2 47.9 143 47.6 142.9 47.3C142.8 47 142.7 46.7 142.7 46.3C142.7 46 142.8 45.6 142.9 45.3C143 45 143.2 44.7 143.4 44.5C143.7 44.2 143.9 44 144.3 43.9C144.6 43.8 145 43.7 145.3 43.7C145.9 43.7 146.4 43.9 146.8 44.2C147.2 44.5 147.5 44.9 147.7 45.5H146.7C146.5 45.2 146.3 45 146.1 44.8C145.9 44.7 145.6 44.6 145.2 44.6C144.8 44.6 144.4 44.8 144.1 45.1C143.8 45.4 143.6 45.8 143.6 46.3C143.6 46.8 143.8 47.2 144.1 47.5C144.4 47.8 144.8 48 145.3 48C145.6 48 145.9 47.9 146.1 47.8C146.4 47.6 146.5 47.4 146.7 47.1H147.6V47.1ZM156.6 45.8C156.5 45.4 156.3 45.1 156 44.9C155.7 44.7 155.4 44.6 155 44.6C154.6 44.6 154.3 44.7 154 44.9C153.7 45.1 153.5 45.4 153.4 45.8H156.6ZM153.5 46.6C153.6 47 153.8 47.3 154.1 47.6C154.4 47.9 154.7 48 155.2 48C155.5 48 155.8 47.9 156 47.8C156.2 47.7 156.4 47.5 156.6 47.2H157.6C157.4 47.7 157.1 48.2 156.7 48.5C156.3 48.8 155.8 48.9 155.3 48.9C154.9 48.9 154.6 48.8 154.3 48.7C154 48.6 153.7 48.4 153.5 48.1C153.3 47.9 153.1 47.6 153 47.3C152.9 47 152.8 46.7 152.8 46.3C152.8 46 152.9 45.6 153 45.3C153.1 45 153.3 44.7 153.5 44.5C153.7 44.2 154 44 154.3 43.9C154.6 43.8 154.9 43.7 155.3 43.7C155.7 43.7 156.1 43.8 156.5 44C156.9 44.2 157.2 44.5 157.4 44.8C157.5 45 157.6 45.3 157.7 45.5C157.8 45.8 157.8 46.1 157.8 46.4V46.5H153.5V46.6ZM171.5 43.3H170.6V42.3H171.5V43.3ZM170.6 48.8V43.9H171.5V48.8H170.6ZM177.8 48.8H176.9V43.9H177.8V44.5C178 44.3 178.2 44.1 178.4 44C178.6 43.9 178.9 43.8 179.2 43.8C179.8 43.8 180.3 44 180.7 44.4C181 44.8 181.2 45.3 181.2 46V48.8H180.3V46.2C180.3 45.7 180.2 45.3 180 45C179.8 44.7 179.5 44.6 179.1 44.6C178.7 44.6 178.3 44.7 178.1 45C177.9 45.3 177.8 45.8 177.8 46.5V48.8V48.8ZM197.8 48.8H194.4V42.3H197.8V43.2H195.4V45.1H197.8V46H195.4V47.9H197.8V48.8ZM204.1 48.8H203.2V43.9H204.1V44.5C204.3 44.3 204.5 44.1 204.7 44C204.9 43.9 205.2 43.8 205.5 43.8C206.1 43.8 206.6 44 207 44.4C207.3 44.8 207.5 45.3 207.5 46V48.8H206.6V46.2C206.6 45.7 206.5 45.3 206.3 45C206.1 44.7 205.8 44.6 205.4 44.6C205 44.6 204.6 44.7 204.4 45C204.2 45.3 204.1 45.8 204.1 46.5V48.8V48.8ZM212.9 49.1H213.8C213.9 49.3 214.1 49.5 214.3 49.6C214.5 49.7 214.8 49.8 215.1 49.8C215.6 49.8 216 49.7 216.3 49.4C216.6 49.1 216.8 48.7 216.8 48.2V48.1C216.6 48.3 216.3 48.5 216 48.6C215.7 48.7 215.4 48.8 215.1 48.8C214.4 48.8 213.7 48.6 213.3 48.1C212.8 47.6 212.6 47 212.6 46.2C212.6 45.9 212.7 45.5 212.8 45.2C212.9 44.9 213.1 44.6 213.3 44.4C213.5 44.1 213.8 44 214.1 43.8C214.4 43.7 214.7 43.6 215.1 43.6C215.4 43.6 215.7 43.7 216 43.8C216.3 43.9 216.5 44.1 216.8 44.3V43.7H217.7V47.8C217.7 48.7 217.5 49.3 217 49.8C216.6 50.3 215.9 50.5 215.2 50.5C214.6 50.5 214.2 50.4 213.8 50.1C213.4 50 213.1 49.6 212.9 49.1ZM213.5 46.3C213.5 46.8 213.7 47.2 214 47.6C214.3 47.9 214.7 48.1 215.2 48.1C215.6 48.1 216 47.9 216.4 47.6C216.7 47.3 216.9 46.9 216.9 46.4C216.9 45.9 216.7 45.5 216.4 45.2C216.1 44.9 215.7 44.7 215.2 44.7C214.7 44.7 214.3 44.9 214 45.2C213.7 45.4 213.5 45.8 213.5 46.3ZM224 43.3H223.1V42.3H224V43.3ZM223.1 48.8V43.9H224V48.8H223.1ZM230.3 48.8H229.4V43.9H230.3V44.5C230.5 44.3 230.7 44.1 230.9 44C231.1 43.9 231.4 43.8 231.7 43.8C232.3 43.8 232.8 44 233.2 44.4C233.5 44.8 233.7 45.3 233.7 46V48.8H232.8V46.2C232.8 45.7 232.7 45.3 232.5 45C232.3 44.7 232 44.6 231.6 44.6C231.2 44.6 230.8 44.7 230.6 45C230.4 45.3 230.3 45.8 230.3 46.5V48.8V48.8ZM242.9 45.8C242.8 45.4 242.6 45.1 242.3 44.9C242 44.7 241.7 44.6 241.3 44.6C240.9 44.6 240.6 44.7 240.3 44.9C240 45.1 239.8 45.4 239.7 45.8H242.9ZM239.7 46.6C239.8 47 240 47.3 240.3 47.6C240.6 47.9 240.9 48 241.4 48C241.7 48 242 47.9 242.2 47.8C242.4 47.7 242.6 47.5 242.8 47.2H243.8C243.6 47.7 243.3 48.2 242.9 48.5C242.5 48.8 242 48.9 241.5 48.9C241.1 48.9 240.8 48.8 240.5 48.7C240.2 48.6 239.9 48.4 239.7 48.1C239.5 47.9 239.3 47.6 239.2 47.3C239.1 47 239 46.7 239 46.3C239 46 239.1 45.6 239.2 45.3C239.3 45 239.5 44.7 239.7 44.5C239.9 44.2 240.2 44 240.5 43.9C240.8 43.8 241.1 43.7 241.5 43.7C241.9 43.7 242.3 43.8 242.7 44C243.1 44.2 243.4 44.5 243.6 44.8C243.7 45 243.8 45.3 243.9 45.5C244 45.8 244 46.1 244 46.4V46.5H239.7V46.6ZM252.8 45.8C252.7 45.4 252.5 45.1 252.2 44.9C251.9 44.7 251.6 44.6 251.2 44.6C250.8 44.6 250.5 44.7 250.2 44.9C249.9 45.1 249.7 45.4 249.6 45.8H252.8ZM249.6 46.6C249.7 47 249.9 47.3 250.2 47.6C250.5 47.9 250.8 48 251.3 48C251.6 48 251.9 47.9 252.1 47.8C252.3 47.7 252.5 47.5 252.7 47.2H253.7C253.5 47.7 253.2 48.2 252.8 48.5C252.4 48.8 251.9 48.9 251.4 48.9C251 48.9 250.7 48.8 250.4 48.7C250.1 48.6 249.8 48.4 249.6 48.1C249.4 47.9 249.2 47.6 249.1 47.3C249 47 248.9 46.7 248.9 46.3C248.9 46 249 45.6 249.1 45.3C249.2 45 249.4 44.7 249.6 44.5C249.8 44.2 250.1 44 250.4 43.9C250.7 43.8 251 43.7 251.4 43.7C251.8 43.7 252.2 43.8 252.6 44C253 44.2 253.3 44.5 253.5 44.8C253.6 45 253.7 45.3 253.8 45.5C253.9 45.8 253.9 46.1 253.9 46.4V46.5H249.6V46.6ZM259.8 48.8H258.9V43.9H259.7V44.5C259.8 44.3 260 44.1 260.2 44C260.4 43.9 260.6 43.8 260.9 43.8V44.7C260.5 44.7 260.2 44.8 260 45.1C259.8 45.3 259.7 45.6 259.7 46.1V48.8H259.8ZM266.8 43.3H265.9V42.3H266.8V43.3ZM265.9 48.8V43.9H266.8V48.8H265.9ZM273.1 48.8H272.2V43.9H273.1V44.5C273.3 44.3 273.5 44.1 273.7 44C273.9 43.9 274.2 43.8 274.5 43.8C275.1 43.8 275.6 44 276 44.4C276.3 44.8 276.5 45.3 276.5 46V48.8H275.6V46.2C275.6 45.7 275.5 45.3 275.3 45C275.1 44.7 274.8 44.6 274.4 44.6C274 44.6 273.6 44.7 273.4 45C273.2 45.3 273.1 45.8 273.1 46.5V48.8V48.8ZM281.9 49.1H282.8C282.9 49.3 283.1 49.5 283.3 49.6C283.5 49.7 283.8 49.8 284.1 49.8C284.6 49.8 285 49.7 285.3 49.4C285.6 49.1 285.8 48.7 285.8 48.2V48.1C285.6 48.3 285.3 48.5 285 48.6C284.7 48.7 284.4 48.8 284.1 48.8C283.4 48.8 282.7 48.6 282.3 48.1C281.8 47.6 281.6 47 281.6 46.2C281.6 45.9 281.7 45.5 281.8 45.2C281.9 44.9 282.1 44.6 282.3 44.4C282.5 44.1 282.8 44 283.1 43.8C283.4 43.7 283.7 43.6 284.1 43.6C284.4 43.6 284.7 43.7 285 43.8C285.3 43.9 285.5 44.1 285.8 44.3V43.7H286.7V47.8C286.7 48.7 286.5 49.3 286 49.8C285.6 50.3 284.9 50.5 284.2 50.5C283.6 50.5 283.2 50.4 282.8 50.1C282.3 50 282 49.6 281.9 49.1ZM282.5 46.3C282.5 46.8 282.7 47.2 283 47.6C283.3 47.9 283.7 48.1 284.2 48.1C284.6 48.1 285 47.9 285.4 47.6C285.7 47.3 285.9 46.9 285.9 46.4C285.9 45.9 285.7 45.5 285.4 45.2C285.1 44.9 284.7 44.7 284.2 44.7C283.7 44.7 283.3 44.9 283 45.2C282.6 45.4 282.5 45.8 282.5 46.3ZM42.4 40.2C27.2 48.1 9.4 46.6 2.6 36.7C-1.2 31.1 -0.800003 24 3.2 17.5H9.8C-3.6 41.5 27 46.9 43.8 38.2C44.9 37.6 46.3 36.9 47.3 36.3H48.4C46.7 37.8 44.6 39 42.4 40.2ZM22.2 15.2L19.5 29.8H25.4L28.1 15.2H22.2V15.2ZM42.4 29.8H54.7C53.8 31 52.3 32.7 51.1 33.9H14.5L18.1 15.2H4.5C5.4 13.9 7.2 11.8 8 11H46L42.4 29.8ZM38.3 29.8L41 15.2H32.3L31.5 19.4H37.2L36.4 23.5H30.7L29.5 29.8H38.3ZM75.5 32H79V16.4H82.5V13H71.9V16.4H75.4V32H75.5ZM81.1 32H85L87 27.1H94L96 32H99.9L92 13H89L81.1 32ZM88.3 23.7L90.5 18.2L92.7 23.7H88.3ZM103.2 32H106.1L113.4 13H109.7L104.6 27.5L99.6 13H95.9L103.2 32ZM115.1 32H118.6V25H118.7L123.6 32H127.9L122.6 25C125.7 24.7 127.7 22.1 127.7 19C127.7 17.2 127 13 120.6 13H115.1V32ZM118.6 16.4H120.7C121.5 16.4 124.2 16.5 124.2 19.2C124.2 21.9 121.5 22 120.7 22H118.6V16.4ZM130.2 32H133.7V13H130.2V32ZM137.5 32H142.8C152.4 32 152.9 24.6 152.9 22.6C152.9 18.9 151.4 13 142.7 13H137.4V32H137.5ZM141 28.6V16.4H142.5C144.4 16.4 149.4 16.6 149.4 22.6C149.4 28.4 144.6 28.6 142.7 28.6H141V28.6ZM153.1 32H157L159 27.1H166L168 32H171.9L164 13H161L153.1 32ZM160.3 23.7L162.5 18.2L164.7 23.7H160.3ZM180.5 32H190.7V28.6H184V24.2H190.4V20.8H184V16.4H190.7V13H180.5V32ZM193.8 32H203.1V28.6H197.3V13H193.8V32ZM205.1 32H215.3V28.6H208.6V24.2H215V20.8H208.6V16.4H215.3V13H205.1V32ZM236.3 18.5C234.7 14.9 231.4 12.7 227.5 12.7C220.8 12.7 217.6 18.3 217.6 22.5C217.6 26.9 220.8 32.5 227.5 32.5C231.6 32.5 234.7 30.2 236.3 26.9H232.2C231 28.4 229.3 29.1 227.6 29.1C224 29.1 221.1 26.1 221.1 22.6C221.1 19.3 223.7 16.2 227.5 16.2C229.8 16.2 231.3 17.4 232.3 18.6H236.3V18.5ZM240.4 32H243.9V16.4H247.4V13H236.8V16.4H240.3V32H240.4ZM249.3 32H252.8V25H252.9L257.8 32H262.1L256.8 25C259.9 24.7 261.9 22.1 261.9 19C261.9 17.2 261.2 13 254.8 13H249.3V32V32ZM252.8 16.4H254.9C255.7 16.4 258.4 16.5 258.4 19.2C258.4 21.9 255.7 22 254.9 22H252.8V16.4V16.4ZM264.3 32H267.8V13H264.3V32ZM289.2 18.5C287.6 14.9 284.3 12.7 280.4 12.7C273.7 12.7 270.5 18.3 270.5 22.5C270.5 26.9 273.7 32.5 280.4 32.5C284.5 32.5 287.6 30.2 289.2 26.9H285C283.8 28.4 282.1 29.1 280.4 29.1C276.8 29.1 273.9 26.1 273.9 22.6C273.9 19.3 276.5 16.2 280.3 16.2C282.6 16.2 284.1 17.4 285.1 18.6H289.2V18.5Z" fill="#276750"/>
</svg>
